M48
; DRILL file {KiCad 5.1.5+dfsg1-2build2} date Вс 14 мар 2021 02:28:47
; FORMAT={-:-/ absolute / metric / decimal}
; #@! TF.CreationDate,2021-03-14T02:28:47+03:00
; #@! TF.GenerationSoftware,Kicad,Pcbnew,5.1.5+dfsg1-2build2
; #@! TF.FileFunction,Plated,1,2,PTH
FMAT,2
METRIC
T1C0.400
T2C0.762
T3C1.000
%
G90
G05
T1
X119.38Y-107.95
X144.78Y-106.68
T2
X119.38Y-115.57
X119.38Y-118.11
X119.38Y-120.65
X119.38Y-123.19
X119.38Y-125.73
X119.38Y-128.27
X119.38Y-130.81
X119.38Y-133.35
X119.38Y-135.89
X119.38Y-138.43
X119.38Y-140.97
X119.38Y-143.51
X120.65Y-146.05
X121.92Y-115.57
X121.92Y-132.08
X121.92Y-134.62
X123.19Y-146.05
X124.46Y-115.57
X125.73Y-146.05
X127.0Y-115.57
X128.27Y-146.05
X130.81Y-146.05
X133.35Y-146.05
X134.62Y-115.57
X134.62Y-118.11
X134.62Y-120.65
X134.62Y-123.19
X134.62Y-125.73
X134.62Y-128.27
X134.62Y-130.81
X134.62Y-133.35
X134.62Y-135.89
X134.62Y-138.43
X134.62Y-140.97
X134.62Y-143.51
T3
X110.49Y-120.65
X113.03Y-120.65
X110.49Y-125.73
X110.49Y-128.27
X110.49Y-130.81
X113.03Y-125.73
X113.03Y-128.27
X113.03Y-130.81
T0
M30
