G04 #@! TF.GenerationSoftware,KiCad,Pcbnew,5.1.5+dfsg1-2build2*
G04 #@! TF.CreationDate,2021-03-14T02:46:22+03:00*
G04 #@! TF.ProjectId,grbl-db25,6772626c-2d64-4623-9235-2e6b69636164,rev?*
G04 #@! TF.SameCoordinates,PX66f2fb0PY5e78920*
G04 #@! TF.FileFunction,Copper,L1,Top*
G04 #@! TF.FilePolarity,Positive*
%FSLAX46Y46*%
G04 Gerber Fmt 4.6, Leading zero omitted, Abs format (unit mm)*
G04 Created by KiCad (PCBNEW 5.1.5+dfsg1-2build2) date 2021-03-14 02:46:22*
%MOMM*%
%LPD*%
G04 APERTURE LIST*
%ADD10C,1.524000*%
%ADD11R,1.700000X1.700000*%
%ADD12O,1.700000X1.700000*%
%ADD13R,1.846667X3.480000*%
%ADD14C,1.200000*%
%ADD15C,1.000000*%
%ADD16C,0.254000*%
G04 APERTURE END LIST*
D10*
X13970000Y-35560000D03*
X26670000Y-36830000D03*
X26670000Y-39370000D03*
X26670000Y-41910000D03*
X26670000Y-44450000D03*
X26670000Y-34290000D03*
X26670000Y-16510000D03*
X11430000Y-16510000D03*
X11430000Y-19050000D03*
X11430000Y-21590000D03*
X11430000Y-24130000D03*
X11430000Y-26670000D03*
X11430000Y-29210000D03*
X11430000Y-31750000D03*
X11430000Y-34290000D03*
X11430000Y-36830000D03*
X11430000Y-41910000D03*
X16510000Y-16510000D03*
X13970000Y-16510000D03*
X13970000Y-33020000D03*
X26670000Y-21590000D03*
X11430000Y-39370000D03*
X26670000Y-19050000D03*
X11430000Y-44450000D03*
X20320000Y-46990000D03*
X22860000Y-46990000D03*
X25400000Y-46990000D03*
X17780000Y-46990000D03*
X15240000Y-46990000D03*
X12700000Y-46990000D03*
X19050000Y-16510000D03*
X26670000Y-31750000D03*
X26670000Y-29210000D03*
X26670000Y-26670000D03*
X26670000Y-24130000D03*
D11*
X2540000Y-31750000D03*
D12*
X5080000Y-31750000D03*
X2540000Y-29210000D03*
X5080000Y-29210000D03*
X2540000Y-26670000D03*
X5080000Y-26670000D03*
X5080000Y-21590000D03*
D11*
X2540000Y-21590000D03*
D13*
X35670000Y-2540000D03*
X32900000Y-2540000D03*
X30130000Y-2540000D03*
X27360000Y-2540000D03*
X24590000Y-2540000D03*
X21820000Y-2540000D03*
X19050000Y-2540000D03*
X16280000Y-2540000D03*
X13510000Y-2540000D03*
X10740000Y-2540000D03*
X7970000Y-2540000D03*
X5200000Y-2540000D03*
X2430000Y-2540000D03*
D14*
X36830000Y-7620000D03*
X11430000Y-8890000D03*
D15*
X2540000Y-26670000D02*
X2540000Y-29210000D01*
X2540000Y-29210000D02*
X2540000Y-31750000D01*
X2540000Y-21590000D02*
X2540000Y-26670000D01*
X11430000Y-41910000D02*
X10160000Y-41910000D01*
X2540000Y-34290000D02*
X2540000Y-31750000D01*
X10160000Y-41910000D02*
X2540000Y-34290000D01*
X32900000Y-7500000D02*
X32900000Y-2540000D01*
X36830000Y-11430000D02*
X32900000Y-7500000D01*
X30480000Y-34290000D02*
X36830000Y-27940000D01*
X26670000Y-34290000D02*
X30480000Y-34290000D01*
X36830000Y-27940000D02*
X36830000Y-11430000D01*
X7970000Y-13050000D02*
X11430000Y-16510000D01*
X7970000Y-2540000D02*
X7970000Y-13050000D01*
X10160000Y-19050000D02*
X11430000Y-19050000D01*
X5200000Y-14090000D02*
X5200000Y-2540000D01*
X10160000Y-19050000D02*
X5200000Y-14090000D01*
X9770001Y-21590000D02*
X11430000Y-21590000D01*
X2430000Y-14249999D02*
X2430000Y-2540000D01*
X9770001Y-21590000D02*
X2430000Y-14249999D01*
X11430000Y-26670000D02*
X5080000Y-26670000D01*
X11430000Y-29210000D02*
X5080000Y-29210000D01*
X11430000Y-31750000D02*
X5080000Y-31750000D01*
X16280000Y-9930000D02*
X16280000Y-2540000D01*
X21590000Y-15240000D02*
X16280000Y-9930000D01*
X21590000Y-25400000D02*
X21590000Y-15240000D01*
X22860000Y-26670000D02*
X21590000Y-25400000D01*
X26670000Y-26670000D02*
X22860000Y-26670000D01*
X35670000Y-6460000D02*
X36830000Y-7620000D01*
X35670000Y-2540000D02*
X35670000Y-6460000D01*
X30130000Y-8540000D02*
X30130000Y-2540000D01*
X34290000Y-12700000D02*
X30130000Y-8540000D01*
X29210000Y-31750000D02*
X34290000Y-26670000D01*
X26670000Y-31750000D02*
X29210000Y-31750000D01*
X34290000Y-26670000D02*
X34290000Y-12700000D01*
X27360000Y-9580000D02*
X31750000Y-13970000D01*
X27360000Y-2540000D02*
X27360000Y-9580000D01*
X27940000Y-29210000D02*
X31750000Y-25400000D01*
X26670000Y-29210000D02*
X27940000Y-29210000D01*
X31750000Y-13970000D02*
X31750000Y-25400000D01*
X27747630Y-21590000D02*
X26670000Y-21590000D01*
X29210000Y-15240000D02*
X29210000Y-20127630D01*
X29210000Y-20127630D02*
X27747630Y-21590000D01*
X21820000Y-7850000D02*
X29210000Y-15240000D01*
X21820000Y-2540000D02*
X21820000Y-7850000D01*
X26670000Y-24130000D02*
X25400000Y-24130000D01*
X25400000Y-24130000D02*
X24130000Y-22860000D01*
X24130000Y-22860000D02*
X24130000Y-13970000D01*
X24130000Y-13970000D02*
X19050000Y-8890000D01*
X19050000Y-8890000D02*
X19050000Y-2540000D01*
X10740000Y-5660000D02*
X11430000Y-6350000D01*
X10740000Y-2540000D02*
X10740000Y-5660000D01*
X11430000Y-6350000D02*
X11430000Y-8890000D01*
D16*
G36*
X732166Y-4797505D02*
G01*
X848008Y-4938659D01*
X989162Y-5054501D01*
X1003001Y-5061898D01*
X1003000Y-14179911D01*
X996097Y-14249999D01*
X1003000Y-14320087D01*
X1003000Y-14320096D01*
X1023648Y-14529739D01*
X1105245Y-14798729D01*
X1237752Y-15046632D01*
X1270641Y-15086707D01*
X1371392Y-15209473D01*
X1371395Y-15209476D01*
X1416077Y-15263921D01*
X1470523Y-15308604D01*
X8711396Y-22549478D01*
X8756078Y-22603923D01*
X8810523Y-22648605D01*
X8810526Y-22648608D01*
X8832541Y-22666675D01*
X8973367Y-22782248D01*
X9221270Y-22914755D01*
X9490260Y-22996352D01*
X9699903Y-23017000D01*
X9699913Y-23017000D01*
X9770001Y-23023903D01*
X9840089Y-23017000D01*
X10154393Y-23017000D01*
X10118068Y-23053325D01*
X9933228Y-23329959D01*
X9805908Y-23637337D01*
X9741000Y-23963648D01*
X9741000Y-24296352D01*
X9805908Y-24622663D01*
X9933228Y-24930041D01*
X10118068Y-25206675D01*
X10154393Y-25243000D01*
X6142859Y-25243000D01*
X5921725Y-25095243D01*
X5598332Y-24961289D01*
X5255019Y-24893000D01*
X4904981Y-24893000D01*
X4561668Y-24961289D01*
X4238275Y-25095243D01*
X3947229Y-25289714D01*
X3699714Y-25537229D01*
X3621106Y-25654874D01*
X3421355Y-25474822D01*
X3171252Y-25325843D01*
X2896891Y-25228519D01*
X2667000Y-25349186D01*
X2667000Y-26543000D01*
X2687000Y-26543000D01*
X2687000Y-26797000D01*
X2667000Y-26797000D01*
X2667000Y-29083000D01*
X2687000Y-29083000D01*
X2687000Y-29337000D01*
X2667000Y-29337000D01*
X2667000Y-31623000D01*
X2687000Y-31623000D01*
X2687000Y-31877000D01*
X2667000Y-31877000D01*
X2667000Y-33076250D01*
X2825750Y-33235000D01*
X3390000Y-33238072D01*
X3514482Y-33225812D01*
X3634180Y-33189502D01*
X3744494Y-33130537D01*
X3841185Y-33051185D01*
X3853330Y-33036387D01*
X3947229Y-33130286D01*
X4238275Y-33324757D01*
X4561668Y-33458711D01*
X4904981Y-33527000D01*
X5255019Y-33527000D01*
X5598332Y-33458711D01*
X5921725Y-33324757D01*
X6142859Y-33177000D01*
X10154393Y-33177000D01*
X10118068Y-33213325D01*
X9933228Y-33489959D01*
X9805908Y-33797337D01*
X9741000Y-34123648D01*
X9741000Y-34456352D01*
X9805908Y-34782663D01*
X9933228Y-35090041D01*
X10118068Y-35366675D01*
X10311393Y-35560000D01*
X10118068Y-35753325D01*
X9933228Y-36029959D01*
X9805908Y-36337337D01*
X9741000Y-36663648D01*
X9741000Y-36996352D01*
X9805908Y-37322663D01*
X9933228Y-37630041D01*
X10118068Y-37906675D01*
X10311393Y-38100000D01*
X10118068Y-38293325D01*
X9933228Y-38569959D01*
X9805908Y-38877337D01*
X9741000Y-39203648D01*
X9741000Y-39536352D01*
X9805908Y-39862663D01*
X9933228Y-40170041D01*
X10118068Y-40446675D01*
X10353325Y-40681932D01*
X10629959Y-40866772D01*
X10662003Y-40880045D01*
X10644040Y-40944435D01*
X11430000Y-41730395D01*
X12215960Y-40944435D01*
X12197997Y-40880045D01*
X12230041Y-40866772D01*
X12506675Y-40681932D01*
X12741932Y-40446675D01*
X12926772Y-40170041D01*
X13054092Y-39862663D01*
X13119000Y-39536352D01*
X13119000Y-39203648D01*
X13054092Y-38877337D01*
X12926772Y-38569959D01*
X12741932Y-38293325D01*
X12548607Y-38100000D01*
X12741932Y-37906675D01*
X12926772Y-37630041D01*
X13054092Y-37322663D01*
X13114370Y-37019629D01*
X13169959Y-37056772D01*
X13477337Y-37184092D01*
X13803648Y-37249000D01*
X14136352Y-37249000D01*
X14462663Y-37184092D01*
X14770041Y-37056772D01*
X15001649Y-36902017D01*
X25268090Y-36902017D01*
X25309078Y-37174133D01*
X25402364Y-37433023D01*
X25464344Y-37548980D01*
X25704435Y-37615960D01*
X26490395Y-36830000D01*
X26849605Y-36830000D01*
X27635565Y-37615960D01*
X27875656Y-37548980D01*
X27992756Y-37299952D01*
X28059023Y-37032865D01*
X28071910Y-36757983D01*
X28030922Y-36485867D01*
X27937636Y-36226977D01*
X27875656Y-36111020D01*
X27635565Y-36044040D01*
X26849605Y-36830000D01*
X26490395Y-36830000D01*
X25704435Y-36044040D01*
X25464344Y-36111020D01*
X25347244Y-36360048D01*
X25280977Y-36627135D01*
X25268090Y-36902017D01*
X15001649Y-36902017D01*
X15046675Y-36871932D01*
X15281932Y-36636675D01*
X15466772Y-36360041D01*
X15594092Y-36052663D01*
X15659000Y-35726352D01*
X15659000Y-35393648D01*
X15594092Y-35067337D01*
X15466772Y-34759959D01*
X15281932Y-34483325D01*
X15088607Y-34290000D01*
X15281932Y-34096675D01*
X15466772Y-33820041D01*
X15594092Y-33512663D01*
X15659000Y-33186352D01*
X15659000Y-32853648D01*
X15594092Y-32527337D01*
X15466772Y-32219959D01*
X15281932Y-31943325D01*
X15046675Y-31708068D01*
X14770041Y-31523228D01*
X14462663Y-31395908D01*
X14136352Y-31331000D01*
X13803648Y-31331000D01*
X13477337Y-31395908D01*
X13169959Y-31523228D01*
X13114370Y-31560371D01*
X13054092Y-31257337D01*
X12926772Y-30949959D01*
X12741932Y-30673325D01*
X12548607Y-30480000D01*
X12741932Y-30286675D01*
X12926772Y-30010041D01*
X13054092Y-29702663D01*
X13119000Y-29376352D01*
X13119000Y-29043648D01*
X13054092Y-28717337D01*
X12926772Y-28409959D01*
X12741932Y-28133325D01*
X12548607Y-27940000D01*
X12741932Y-27746675D01*
X12926772Y-27470041D01*
X13054092Y-27162663D01*
X13119000Y-26836352D01*
X13119000Y-26503648D01*
X13054092Y-26177337D01*
X12926772Y-25869959D01*
X12741932Y-25593325D01*
X12548607Y-25400000D01*
X12741932Y-25206675D01*
X12926772Y-24930041D01*
X13054092Y-24622663D01*
X13119000Y-24296352D01*
X13119000Y-23963648D01*
X13054092Y-23637337D01*
X12926772Y-23329959D01*
X12741932Y-23053325D01*
X12548607Y-22860000D01*
X12741932Y-22666675D01*
X12926772Y-22390041D01*
X13054092Y-22082663D01*
X13119000Y-21756352D01*
X13119000Y-21423648D01*
X13054092Y-21097337D01*
X12926772Y-20789959D01*
X12741932Y-20513325D01*
X12548607Y-20320000D01*
X12741932Y-20126675D01*
X12926772Y-19850041D01*
X13054092Y-19542663D01*
X13119000Y-19216352D01*
X13119000Y-18883648D01*
X13054092Y-18557337D01*
X12926772Y-18249959D01*
X12741932Y-17973325D01*
X12548607Y-17780000D01*
X12700000Y-17628607D01*
X12893325Y-17821932D01*
X13169959Y-18006772D01*
X13477337Y-18134092D01*
X13803648Y-18199000D01*
X14136352Y-18199000D01*
X14462663Y-18134092D01*
X14770041Y-18006772D01*
X15046675Y-17821932D01*
X15240000Y-17628607D01*
X15433325Y-17821932D01*
X15709959Y-18006772D01*
X16017337Y-18134092D01*
X16343648Y-18199000D01*
X16676352Y-18199000D01*
X17002663Y-18134092D01*
X17310041Y-18006772D01*
X17586675Y-17821932D01*
X17821932Y-17586675D01*
X17896172Y-17475565D01*
X18264040Y-17475565D01*
X18331020Y-17715656D01*
X18580048Y-17832756D01*
X18847135Y-17899023D01*
X19122017Y-17911910D01*
X19394133Y-17870922D01*
X19653023Y-17777636D01*
X19768980Y-17715656D01*
X19835960Y-17475565D01*
X19050000Y-16689605D01*
X18264040Y-17475565D01*
X17896172Y-17475565D01*
X18006772Y-17310041D01*
X18020045Y-17277997D01*
X18084435Y-17295960D01*
X18870395Y-16510000D01*
X18084435Y-15724040D01*
X18020045Y-15742003D01*
X18006772Y-15709959D01*
X17821932Y-15433325D01*
X17586675Y-15198068D01*
X17310041Y-15013228D01*
X17002663Y-14885908D01*
X16676352Y-14821000D01*
X16343648Y-14821000D01*
X16017337Y-14885908D01*
X15709959Y-15013228D01*
X15433325Y-15198068D01*
X15240000Y-15391393D01*
X15046675Y-15198068D01*
X14770041Y-15013228D01*
X14462663Y-14885908D01*
X14136352Y-14821000D01*
X13803648Y-14821000D01*
X13477337Y-14885908D01*
X13169959Y-15013228D01*
X12893325Y-15198068D01*
X12700000Y-15391393D01*
X12506675Y-15198068D01*
X12230041Y-15013228D01*
X11922663Y-14885908D01*
X11799490Y-14861407D01*
X9397000Y-12458918D01*
X9397000Y-6148582D01*
X9415246Y-6208731D01*
X9547753Y-6456634D01*
X9681392Y-6619474D01*
X9681396Y-6619478D01*
X9726078Y-6673923D01*
X9780524Y-6718606D01*
X10003000Y-6941082D01*
X10003001Y-8344836D01*
X9961681Y-8444590D01*
X9903000Y-8739604D01*
X9903000Y-9040396D01*
X9961681Y-9335410D01*
X10076790Y-9613306D01*
X10243901Y-9863406D01*
X10456594Y-10076099D01*
X10706694Y-10243210D01*
X10984590Y-10358319D01*
X11279604Y-10417000D01*
X11580396Y-10417000D01*
X11875410Y-10358319D01*
X12153306Y-10243210D01*
X12403406Y-10076099D01*
X12616099Y-9863406D01*
X12783210Y-9613306D01*
X12898319Y-9335410D01*
X12957000Y-9040396D01*
X12957000Y-8739604D01*
X12898319Y-8444590D01*
X12857000Y-8344838D01*
X12857000Y-6420087D01*
X12863903Y-6349999D01*
X12857000Y-6279911D01*
X12857000Y-6279902D01*
X12836352Y-6070259D01*
X12754755Y-5801269D01*
X12622248Y-5553366D01*
X12443922Y-5336077D01*
X12389472Y-5291391D01*
X12242344Y-5144263D01*
X12404943Y-5193587D01*
X12586667Y-5211485D01*
X14433333Y-5211485D01*
X14615057Y-5193587D01*
X14789797Y-5140580D01*
X14853001Y-5106797D01*
X14853000Y-9859912D01*
X14846097Y-9930000D01*
X14853000Y-10000088D01*
X14853000Y-10000097D01*
X14873648Y-10209740D01*
X14955245Y-10478730D01*
X15037900Y-10633366D01*
X15087753Y-10726634D01*
X15221392Y-10889474D01*
X15221395Y-10889477D01*
X15266077Y-10943922D01*
X15320523Y-10988605D01*
X19518900Y-15186983D01*
X19252865Y-15120977D01*
X18977983Y-15108090D01*
X18705867Y-15149078D01*
X18446977Y-15242364D01*
X18331020Y-15304344D01*
X18264040Y-15544435D01*
X19050000Y-16330395D01*
X19064143Y-16316253D01*
X19243748Y-16495858D01*
X19229605Y-16510000D01*
X20015565Y-17295960D01*
X20163001Y-17254829D01*
X20163000Y-25329912D01*
X20156097Y-25400000D01*
X20163000Y-25470088D01*
X20163000Y-25470097D01*
X20183648Y-25679740D01*
X20265245Y-25948730D01*
X20397752Y-26196633D01*
X20397753Y-26196634D01*
X20531392Y-26359474D01*
X20531393Y-26359475D01*
X20576077Y-26413922D01*
X20630523Y-26458605D01*
X21801390Y-27629472D01*
X21846077Y-27683923D01*
X22063366Y-27862248D01*
X22311269Y-27994755D01*
X22580259Y-28076352D01*
X22789902Y-28097000D01*
X22789911Y-28097000D01*
X22859999Y-28103903D01*
X22930087Y-28097000D01*
X25394393Y-28097000D01*
X25358068Y-28133325D01*
X25173228Y-28409959D01*
X25045908Y-28717337D01*
X24981000Y-29043648D01*
X24981000Y-29376352D01*
X25045908Y-29702663D01*
X25173228Y-30010041D01*
X25358068Y-30286675D01*
X25551393Y-30480000D01*
X25358068Y-30673325D01*
X25173228Y-30949959D01*
X25045908Y-31257337D01*
X24981000Y-31583648D01*
X24981000Y-31916352D01*
X25045908Y-32242663D01*
X25173228Y-32550041D01*
X25358068Y-32826675D01*
X25551393Y-33020000D01*
X25358068Y-33213325D01*
X25173228Y-33489959D01*
X25045908Y-33797337D01*
X24981000Y-34123648D01*
X24981000Y-34456352D01*
X25045908Y-34782663D01*
X25173228Y-35090041D01*
X25358068Y-35366675D01*
X25593325Y-35601932D01*
X25869959Y-35786772D01*
X25902003Y-35800045D01*
X25884040Y-35864435D01*
X26670000Y-36650395D01*
X27455960Y-35864435D01*
X27437997Y-35800045D01*
X27470041Y-35786772D01*
X27574463Y-35717000D01*
X30409912Y-35717000D01*
X30480000Y-35723903D01*
X30550088Y-35717000D01*
X30550098Y-35717000D01*
X30759741Y-35696352D01*
X31028731Y-35614755D01*
X31276634Y-35482248D01*
X31493923Y-35303923D01*
X31538609Y-35249473D01*
X37440001Y-29348082D01*
X37440001Y-39850393D01*
X27887394Y-49403000D01*
X10212606Y-49403000D01*
X8765171Y-47955565D01*
X11914040Y-47955565D01*
X11981020Y-48195656D01*
X12230048Y-48312756D01*
X12497135Y-48379023D01*
X12772017Y-48391910D01*
X13044133Y-48350922D01*
X13303023Y-48257636D01*
X13418980Y-48195656D01*
X13485960Y-47955565D01*
X14454040Y-47955565D01*
X14521020Y-48195656D01*
X14770048Y-48312756D01*
X15037135Y-48379023D01*
X15312017Y-48391910D01*
X15584133Y-48350922D01*
X15843023Y-48257636D01*
X15958980Y-48195656D01*
X16025960Y-47955565D01*
X15240000Y-47169605D01*
X14454040Y-47955565D01*
X13485960Y-47955565D01*
X12700000Y-47169605D01*
X11914040Y-47955565D01*
X8765171Y-47955565D01*
X5093254Y-44283648D01*
X9741000Y-44283648D01*
X9741000Y-44616352D01*
X9805908Y-44942663D01*
X9933228Y-45250041D01*
X10118068Y-45526675D01*
X10353325Y-45761932D01*
X10629959Y-45946772D01*
X10937337Y-46074092D01*
X11263648Y-46139000D01*
X11596352Y-46139000D01*
X11657274Y-46126882D01*
X11734433Y-46204041D01*
X11494344Y-46271020D01*
X11377244Y-46520048D01*
X11310977Y-46787135D01*
X11298090Y-47062017D01*
X11339078Y-47334133D01*
X11432364Y-47593023D01*
X11494344Y-47708980D01*
X11734435Y-47775960D01*
X12520395Y-46990000D01*
X12879605Y-46990000D01*
X13665565Y-47775960D01*
X13905656Y-47708980D01*
X13967079Y-47578356D01*
X13972364Y-47593023D01*
X14034344Y-47708980D01*
X14274435Y-47775960D01*
X15060395Y-46990000D01*
X15419605Y-46990000D01*
X16205565Y-47775960D01*
X16269955Y-47757997D01*
X16283228Y-47790041D01*
X16468068Y-48066675D01*
X16703325Y-48301932D01*
X16979959Y-48486772D01*
X17287337Y-48614092D01*
X17613648Y-48679000D01*
X17946352Y-48679000D01*
X18272663Y-48614092D01*
X18580041Y-48486772D01*
X18856675Y-48301932D01*
X19050000Y-48108607D01*
X19243325Y-48301932D01*
X19519959Y-48486772D01*
X19827337Y-48614092D01*
X20153648Y-48679000D01*
X20486352Y-48679000D01*
X20812663Y-48614092D01*
X21120041Y-48486772D01*
X21396675Y-48301932D01*
X21590000Y-48108607D01*
X21783325Y-48301932D01*
X22059959Y-48486772D01*
X22367337Y-48614092D01*
X22693648Y-48679000D01*
X23026352Y-48679000D01*
X23352663Y-48614092D01*
X23660041Y-48486772D01*
X23936675Y-48301932D01*
X24130000Y-48108607D01*
X24323325Y-48301932D01*
X24599959Y-48486772D01*
X24907337Y-48614092D01*
X25233648Y-48679000D01*
X25566352Y-48679000D01*
X25892663Y-48614092D01*
X26200041Y-48486772D01*
X26476675Y-48301932D01*
X26711932Y-48066675D01*
X26896772Y-47790041D01*
X27024092Y-47482663D01*
X27089000Y-47156352D01*
X27089000Y-46823648D01*
X27024092Y-46497337D01*
X26896772Y-46189959D01*
X26859629Y-46134370D01*
X27162663Y-46074092D01*
X27470041Y-45946772D01*
X27746675Y-45761932D01*
X27981932Y-45526675D01*
X28166772Y-45250041D01*
X28294092Y-44942663D01*
X28359000Y-44616352D01*
X28359000Y-44283648D01*
X28294092Y-43957337D01*
X28166772Y-43649959D01*
X27981932Y-43373325D01*
X27788607Y-43180000D01*
X27981932Y-42986675D01*
X28166772Y-42710041D01*
X28294092Y-42402663D01*
X28359000Y-42076352D01*
X28359000Y-41743648D01*
X28294092Y-41417337D01*
X28166772Y-41109959D01*
X27981932Y-40833325D01*
X27788607Y-40640000D01*
X27981932Y-40446675D01*
X28166772Y-40170041D01*
X28294092Y-39862663D01*
X28359000Y-39536352D01*
X28359000Y-39203648D01*
X28294092Y-38877337D01*
X28166772Y-38569959D01*
X27981932Y-38293325D01*
X27746675Y-38058068D01*
X27470041Y-37873228D01*
X27437997Y-37859955D01*
X27455960Y-37795565D01*
X26670000Y-37009605D01*
X25884040Y-37795565D01*
X25902003Y-37859955D01*
X25869959Y-37873228D01*
X25593325Y-38058068D01*
X25358068Y-38293325D01*
X25173228Y-38569959D01*
X25045908Y-38877337D01*
X24981000Y-39203648D01*
X24981000Y-39536352D01*
X25045908Y-39862663D01*
X25173228Y-40170041D01*
X25358068Y-40446675D01*
X25551393Y-40640000D01*
X25358068Y-40833325D01*
X25173228Y-41109959D01*
X25045908Y-41417337D01*
X24981000Y-41743648D01*
X24981000Y-42076352D01*
X25045908Y-42402663D01*
X25173228Y-42710041D01*
X25358068Y-42986675D01*
X25551393Y-43180000D01*
X25358068Y-43373325D01*
X25173228Y-43649959D01*
X25045908Y-43957337D01*
X24981000Y-44283648D01*
X24981000Y-44616352D01*
X25045908Y-44942663D01*
X25173228Y-45250041D01*
X25210371Y-45305630D01*
X24907337Y-45365908D01*
X24599959Y-45493228D01*
X24323325Y-45678068D01*
X24130000Y-45871393D01*
X23936675Y-45678068D01*
X23660041Y-45493228D01*
X23352663Y-45365908D01*
X23026352Y-45301000D01*
X22693648Y-45301000D01*
X22367337Y-45365908D01*
X22059959Y-45493228D01*
X21783325Y-45678068D01*
X21590000Y-45871393D01*
X21396675Y-45678068D01*
X21120041Y-45493228D01*
X20812663Y-45365908D01*
X20486352Y-45301000D01*
X20153648Y-45301000D01*
X19827337Y-45365908D01*
X19519959Y-45493228D01*
X19243325Y-45678068D01*
X19050000Y-45871393D01*
X18856675Y-45678068D01*
X18580041Y-45493228D01*
X18272663Y-45365908D01*
X17946352Y-45301000D01*
X17613648Y-45301000D01*
X17287337Y-45365908D01*
X16979959Y-45493228D01*
X16703325Y-45678068D01*
X16468068Y-45913325D01*
X16283228Y-46189959D01*
X16269955Y-46222003D01*
X16205565Y-46204040D01*
X15419605Y-46990000D01*
X15060395Y-46990000D01*
X14274435Y-46204040D01*
X14034344Y-46271020D01*
X13972921Y-46401644D01*
X13967636Y-46386977D01*
X13905656Y-46271020D01*
X13665565Y-46204040D01*
X12879605Y-46990000D01*
X12520395Y-46990000D01*
X12506253Y-46975858D01*
X12685858Y-46796253D01*
X12700000Y-46810395D01*
X13485960Y-46024435D01*
X14454040Y-46024435D01*
X15240000Y-46810395D01*
X16025960Y-46024435D01*
X15958980Y-45784344D01*
X15709952Y-45667244D01*
X15442865Y-45600977D01*
X15167983Y-45588090D01*
X14895867Y-45629078D01*
X14636977Y-45722364D01*
X14521020Y-45784344D01*
X14454040Y-46024435D01*
X13485960Y-46024435D01*
X13418980Y-45784344D01*
X13169952Y-45667244D01*
X12902865Y-45600977D01*
X12678164Y-45590443D01*
X12741932Y-45526675D01*
X12926772Y-45250041D01*
X13054092Y-44942663D01*
X13119000Y-44616352D01*
X13119000Y-44283648D01*
X13054092Y-43957337D01*
X12926772Y-43649959D01*
X12741932Y-43373325D01*
X12506675Y-43138068D01*
X12230041Y-42953228D01*
X12197997Y-42939955D01*
X12215960Y-42875565D01*
X11430000Y-42089605D01*
X10644040Y-42875565D01*
X10662003Y-42939955D01*
X10629959Y-42953228D01*
X10353325Y-43138068D01*
X10118068Y-43373325D01*
X9933228Y-43649959D01*
X9805908Y-43957337D01*
X9741000Y-44283648D01*
X5093254Y-44283648D01*
X2791623Y-41982017D01*
X10028090Y-41982017D01*
X10069078Y-42254133D01*
X10162364Y-42513023D01*
X10224344Y-42628980D01*
X10464435Y-42695960D01*
X11250395Y-41910000D01*
X11609605Y-41910000D01*
X12395565Y-42695960D01*
X12635656Y-42628980D01*
X12752756Y-42379952D01*
X12819023Y-42112865D01*
X12831910Y-41837983D01*
X12790922Y-41565867D01*
X12697636Y-41306977D01*
X12635656Y-41191020D01*
X12395565Y-41124040D01*
X11609605Y-41910000D01*
X11250395Y-41910000D01*
X10464435Y-41124040D01*
X10224344Y-41191020D01*
X10107244Y-41440048D01*
X10040977Y-41707135D01*
X10028090Y-41982017D01*
X2791623Y-41982017D01*
X660000Y-39850394D01*
X660000Y-32600000D01*
X1051928Y-32600000D01*
X1064188Y-32724482D01*
X1100498Y-32844180D01*
X1159463Y-32954494D01*
X1238815Y-33051185D01*
X1335506Y-33130537D01*
X1445820Y-33189502D01*
X1565518Y-33225812D01*
X1690000Y-33238072D01*
X2254250Y-33235000D01*
X2413000Y-33076250D01*
X2413000Y-31877000D01*
X1213750Y-31877000D01*
X1055000Y-32035750D01*
X1051928Y-32600000D01*
X660000Y-32600000D01*
X660000Y-30900000D01*
X1051928Y-30900000D01*
X1055000Y-31464250D01*
X1213750Y-31623000D01*
X2413000Y-31623000D01*
X2413000Y-29337000D01*
X1219845Y-29337000D01*
X1098524Y-29566890D01*
X1143175Y-29714099D01*
X1268359Y-29976920D01*
X1442412Y-30210269D01*
X1526466Y-30286034D01*
X1445820Y-30310498D01*
X1335506Y-30369463D01*
X1238815Y-30448815D01*
X1159463Y-30545506D01*
X1100498Y-30655820D01*
X1064188Y-30775518D01*
X1051928Y-30900000D01*
X660000Y-30900000D01*
X660000Y-27026890D01*
X1098524Y-27026890D01*
X1143175Y-27174099D01*
X1268359Y-27436920D01*
X1442412Y-27670269D01*
X1658645Y-27865178D01*
X1784255Y-27940000D01*
X1658645Y-28014822D01*
X1442412Y-28209731D01*
X1268359Y-28443080D01*
X1143175Y-28705901D01*
X1098524Y-28853110D01*
X1219845Y-29083000D01*
X2413000Y-29083000D01*
X2413000Y-26797000D01*
X1219845Y-26797000D01*
X1098524Y-27026890D01*
X660000Y-27026890D01*
X660000Y-26313110D01*
X1098524Y-26313110D01*
X1219845Y-26543000D01*
X2413000Y-26543000D01*
X2413000Y-25349186D01*
X2183109Y-25228519D01*
X1908748Y-25325843D01*
X1658645Y-25474822D01*
X1442412Y-25669731D01*
X1268359Y-25903080D01*
X1143175Y-26165901D01*
X1098524Y-26313110D01*
X660000Y-26313110D01*
X660000Y-22440000D01*
X1051928Y-22440000D01*
X1064188Y-22564482D01*
X1100498Y-22684180D01*
X1159463Y-22794494D01*
X1238815Y-22891185D01*
X1335506Y-22970537D01*
X1445820Y-23029502D01*
X1565518Y-23065812D01*
X1690000Y-23078072D01*
X2254250Y-23075000D01*
X2413000Y-22916250D01*
X2413000Y-21717000D01*
X1213750Y-21717000D01*
X1055000Y-21875750D01*
X1051928Y-22440000D01*
X660000Y-22440000D01*
X660000Y-20740000D01*
X1051928Y-20740000D01*
X1055000Y-21304250D01*
X1213750Y-21463000D01*
X2413000Y-21463000D01*
X2413000Y-20263750D01*
X2667000Y-20263750D01*
X2667000Y-21463000D01*
X2687000Y-21463000D01*
X2687000Y-21717000D01*
X2667000Y-21717000D01*
X2667000Y-22916250D01*
X2825750Y-23075000D01*
X3390000Y-23078072D01*
X3514482Y-23065812D01*
X3634180Y-23029502D01*
X3744494Y-22970537D01*
X3841185Y-22891185D01*
X3853330Y-22876387D01*
X3947229Y-22970286D01*
X4238275Y-23164757D01*
X4561668Y-23298711D01*
X4904981Y-23367000D01*
X5255019Y-23367000D01*
X5598332Y-23298711D01*
X5921725Y-23164757D01*
X6212771Y-22970286D01*
X6460286Y-22722771D01*
X6654757Y-22431725D01*
X6788711Y-22108332D01*
X6857000Y-21765019D01*
X6857000Y-21414981D01*
X6788711Y-21071668D01*
X6654757Y-20748275D01*
X6460286Y-20457229D01*
X6212771Y-20209714D01*
X5921725Y-20015243D01*
X5598332Y-19881289D01*
X5255019Y-19813000D01*
X4904981Y-19813000D01*
X4561668Y-19881289D01*
X4238275Y-20015243D01*
X3947229Y-20209714D01*
X3853330Y-20303613D01*
X3841185Y-20288815D01*
X3744494Y-20209463D01*
X3634180Y-20150498D01*
X3514482Y-20114188D01*
X3390000Y-20101928D01*
X2825750Y-20105000D01*
X2667000Y-20263750D01*
X2413000Y-20263750D01*
X2254250Y-20105000D01*
X1690000Y-20101928D01*
X1565518Y-20114188D01*
X1445820Y-20150498D01*
X1335506Y-20209463D01*
X1238815Y-20288815D01*
X1159463Y-20385506D01*
X1100498Y-20495820D01*
X1064188Y-20615518D01*
X1051928Y-20740000D01*
X660000Y-20740000D01*
X660000Y-4662493D01*
X732166Y-4797505D01*
G37*
X732166Y-4797505D02*
X848008Y-4938659D01*
X989162Y-5054501D01*
X1003001Y-5061898D01*
X1003000Y-14179911D01*
X996097Y-14249999D01*
X1003000Y-14320087D01*
X1003000Y-14320096D01*
X1023648Y-14529739D01*
X1105245Y-14798729D01*
X1237752Y-15046632D01*
X1270641Y-15086707D01*
X1371392Y-15209473D01*
X1371395Y-15209476D01*
X1416077Y-15263921D01*
X1470523Y-15308604D01*
X8711396Y-22549478D01*
X8756078Y-22603923D01*
X8810523Y-22648605D01*
X8810526Y-22648608D01*
X8832541Y-22666675D01*
X8973367Y-22782248D01*
X9221270Y-22914755D01*
X9490260Y-22996352D01*
X9699903Y-23017000D01*
X9699913Y-23017000D01*
X9770001Y-23023903D01*
X9840089Y-23017000D01*
X10154393Y-23017000D01*
X10118068Y-23053325D01*
X9933228Y-23329959D01*
X9805908Y-23637337D01*
X9741000Y-23963648D01*
X9741000Y-24296352D01*
X9805908Y-24622663D01*
X9933228Y-24930041D01*
X10118068Y-25206675D01*
X10154393Y-25243000D01*
X6142859Y-25243000D01*
X5921725Y-25095243D01*
X5598332Y-24961289D01*
X5255019Y-24893000D01*
X4904981Y-24893000D01*
X4561668Y-24961289D01*
X4238275Y-25095243D01*
X3947229Y-25289714D01*
X3699714Y-25537229D01*
X3621106Y-25654874D01*
X3421355Y-25474822D01*
X3171252Y-25325843D01*
X2896891Y-25228519D01*
X2667000Y-25349186D01*
X2667000Y-26543000D01*
X2687000Y-26543000D01*
X2687000Y-26797000D01*
X2667000Y-26797000D01*
X2667000Y-29083000D01*
X2687000Y-29083000D01*
X2687000Y-29337000D01*
X2667000Y-29337000D01*
X2667000Y-31623000D01*
X2687000Y-31623000D01*
X2687000Y-31877000D01*
X2667000Y-31877000D01*
X2667000Y-33076250D01*
X2825750Y-33235000D01*
X3390000Y-33238072D01*
X3514482Y-33225812D01*
X3634180Y-33189502D01*
X3744494Y-33130537D01*
X3841185Y-33051185D01*
X3853330Y-33036387D01*
X3947229Y-33130286D01*
X4238275Y-33324757D01*
X4561668Y-33458711D01*
X4904981Y-33527000D01*
X5255019Y-33527000D01*
X5598332Y-33458711D01*
X5921725Y-33324757D01*
X6142859Y-33177000D01*
X10154393Y-33177000D01*
X10118068Y-33213325D01*
X9933228Y-33489959D01*
X9805908Y-33797337D01*
X9741000Y-34123648D01*
X9741000Y-34456352D01*
X9805908Y-34782663D01*
X9933228Y-35090041D01*
X10118068Y-35366675D01*
X10311393Y-35560000D01*
X10118068Y-35753325D01*
X9933228Y-36029959D01*
X9805908Y-36337337D01*
X9741000Y-36663648D01*
X9741000Y-36996352D01*
X9805908Y-37322663D01*
X9933228Y-37630041D01*
X10118068Y-37906675D01*
X10311393Y-38100000D01*
X10118068Y-38293325D01*
X9933228Y-38569959D01*
X9805908Y-38877337D01*
X9741000Y-39203648D01*
X9741000Y-39536352D01*
X9805908Y-39862663D01*
X9933228Y-40170041D01*
X10118068Y-40446675D01*
X10353325Y-40681932D01*
X10629959Y-40866772D01*
X10662003Y-40880045D01*
X10644040Y-40944435D01*
X11430000Y-41730395D01*
X12215960Y-40944435D01*
X12197997Y-40880045D01*
X12230041Y-40866772D01*
X12506675Y-40681932D01*
X12741932Y-40446675D01*
X12926772Y-40170041D01*
X13054092Y-39862663D01*
X13119000Y-39536352D01*
X13119000Y-39203648D01*
X13054092Y-38877337D01*
X12926772Y-38569959D01*
X12741932Y-38293325D01*
X12548607Y-38100000D01*
X12741932Y-37906675D01*
X12926772Y-37630041D01*
X13054092Y-37322663D01*
X13114370Y-37019629D01*
X13169959Y-37056772D01*
X13477337Y-37184092D01*
X13803648Y-37249000D01*
X14136352Y-37249000D01*
X14462663Y-37184092D01*
X14770041Y-37056772D01*
X15001649Y-36902017D01*
X25268090Y-36902017D01*
X25309078Y-37174133D01*
X25402364Y-37433023D01*
X25464344Y-37548980D01*
X25704435Y-37615960D01*
X26490395Y-36830000D01*
X26849605Y-36830000D01*
X27635565Y-37615960D01*
X27875656Y-37548980D01*
X27992756Y-37299952D01*
X28059023Y-37032865D01*
X28071910Y-36757983D01*
X28030922Y-36485867D01*
X27937636Y-36226977D01*
X27875656Y-36111020D01*
X27635565Y-36044040D01*
X26849605Y-36830000D01*
X26490395Y-36830000D01*
X25704435Y-36044040D01*
X25464344Y-36111020D01*
X25347244Y-36360048D01*
X25280977Y-36627135D01*
X25268090Y-36902017D01*
X15001649Y-36902017D01*
X15046675Y-36871932D01*
X15281932Y-36636675D01*
X15466772Y-36360041D01*
X15594092Y-36052663D01*
X15659000Y-35726352D01*
X15659000Y-35393648D01*
X15594092Y-35067337D01*
X15466772Y-34759959D01*
X15281932Y-34483325D01*
X15088607Y-34290000D01*
X15281932Y-34096675D01*
X15466772Y-33820041D01*
X15594092Y-33512663D01*
X15659000Y-33186352D01*
X15659000Y-32853648D01*
X15594092Y-32527337D01*
X15466772Y-32219959D01*
X15281932Y-31943325D01*
X15046675Y-31708068D01*
X14770041Y-31523228D01*
X14462663Y-31395908D01*
X14136352Y-31331000D01*
X13803648Y-31331000D01*
X13477337Y-31395908D01*
X13169959Y-31523228D01*
X13114370Y-31560371D01*
X13054092Y-31257337D01*
X12926772Y-30949959D01*
X12741932Y-30673325D01*
X12548607Y-30480000D01*
X12741932Y-30286675D01*
X12926772Y-30010041D01*
X13054092Y-29702663D01*
X13119000Y-29376352D01*
X13119000Y-29043648D01*
X13054092Y-28717337D01*
X12926772Y-28409959D01*
X12741932Y-28133325D01*
X12548607Y-27940000D01*
X12741932Y-27746675D01*
X12926772Y-27470041D01*
X13054092Y-27162663D01*
X13119000Y-26836352D01*
X13119000Y-26503648D01*
X13054092Y-26177337D01*
X12926772Y-25869959D01*
X12741932Y-25593325D01*
X12548607Y-25400000D01*
X12741932Y-25206675D01*
X12926772Y-24930041D01*
X13054092Y-24622663D01*
X13119000Y-24296352D01*
X13119000Y-23963648D01*
X13054092Y-23637337D01*
X12926772Y-23329959D01*
X12741932Y-23053325D01*
X12548607Y-22860000D01*
X12741932Y-22666675D01*
X12926772Y-22390041D01*
X13054092Y-22082663D01*
X13119000Y-21756352D01*
X13119000Y-21423648D01*
X13054092Y-21097337D01*
X12926772Y-20789959D01*
X12741932Y-20513325D01*
X12548607Y-20320000D01*
X12741932Y-20126675D01*
X12926772Y-19850041D01*
X13054092Y-19542663D01*
X13119000Y-19216352D01*
X13119000Y-18883648D01*
X13054092Y-18557337D01*
X12926772Y-18249959D01*
X12741932Y-17973325D01*
X12548607Y-17780000D01*
X12700000Y-17628607D01*
X12893325Y-17821932D01*
X13169959Y-18006772D01*
X13477337Y-18134092D01*
X13803648Y-18199000D01*
X14136352Y-18199000D01*
X14462663Y-18134092D01*
X14770041Y-18006772D01*
X15046675Y-17821932D01*
X15240000Y-17628607D01*
X15433325Y-17821932D01*
X15709959Y-18006772D01*
X16017337Y-18134092D01*
X16343648Y-18199000D01*
X16676352Y-18199000D01*
X17002663Y-18134092D01*
X17310041Y-18006772D01*
X17586675Y-17821932D01*
X17821932Y-17586675D01*
X17896172Y-17475565D01*
X18264040Y-17475565D01*
X18331020Y-17715656D01*
X18580048Y-17832756D01*
X18847135Y-17899023D01*
X19122017Y-17911910D01*
X19394133Y-17870922D01*
X19653023Y-17777636D01*
X19768980Y-17715656D01*
X19835960Y-17475565D01*
X19050000Y-16689605D01*
X18264040Y-17475565D01*
X17896172Y-17475565D01*
X18006772Y-17310041D01*
X18020045Y-17277997D01*
X18084435Y-17295960D01*
X18870395Y-16510000D01*
X18084435Y-15724040D01*
X18020045Y-15742003D01*
X18006772Y-15709959D01*
X17821932Y-15433325D01*
X17586675Y-15198068D01*
X17310041Y-15013228D01*
X17002663Y-14885908D01*
X16676352Y-14821000D01*
X16343648Y-14821000D01*
X16017337Y-14885908D01*
X15709959Y-15013228D01*
X15433325Y-15198068D01*
X15240000Y-15391393D01*
X15046675Y-15198068D01*
X14770041Y-15013228D01*
X14462663Y-14885908D01*
X14136352Y-14821000D01*
X13803648Y-14821000D01*
X13477337Y-14885908D01*
X13169959Y-15013228D01*
X12893325Y-15198068D01*
X12700000Y-15391393D01*
X12506675Y-15198068D01*
X12230041Y-15013228D01*
X11922663Y-14885908D01*
X11799490Y-14861407D01*
X9397000Y-12458918D01*
X9397000Y-6148582D01*
X9415246Y-6208731D01*
X9547753Y-6456634D01*
X9681392Y-6619474D01*
X9681396Y-6619478D01*
X9726078Y-6673923D01*
X9780524Y-6718606D01*
X10003000Y-6941082D01*
X10003001Y-8344836D01*
X9961681Y-8444590D01*
X9903000Y-8739604D01*
X9903000Y-9040396D01*
X9961681Y-9335410D01*
X10076790Y-9613306D01*
X10243901Y-9863406D01*
X10456594Y-10076099D01*
X10706694Y-10243210D01*
X10984590Y-10358319D01*
X11279604Y-10417000D01*
X11580396Y-10417000D01*
X11875410Y-10358319D01*
X12153306Y-10243210D01*
X12403406Y-10076099D01*
X12616099Y-9863406D01*
X12783210Y-9613306D01*
X12898319Y-9335410D01*
X12957000Y-9040396D01*
X12957000Y-8739604D01*
X12898319Y-8444590D01*
X12857000Y-8344838D01*
X12857000Y-6420087D01*
X12863903Y-6349999D01*
X12857000Y-6279911D01*
X12857000Y-6279902D01*
X12836352Y-6070259D01*
X12754755Y-5801269D01*
X12622248Y-5553366D01*
X12443922Y-5336077D01*
X12389472Y-5291391D01*
X12242344Y-5144263D01*
X12404943Y-5193587D01*
X12586667Y-5211485D01*
X14433333Y-5211485D01*
X14615057Y-5193587D01*
X14789797Y-5140580D01*
X14853001Y-5106797D01*
X14853000Y-9859912D01*
X14846097Y-9930000D01*
X14853000Y-10000088D01*
X14853000Y-10000097D01*
X14873648Y-10209740D01*
X14955245Y-10478730D01*
X15037900Y-10633366D01*
X15087753Y-10726634D01*
X15221392Y-10889474D01*
X15221395Y-10889477D01*
X15266077Y-10943922D01*
X15320523Y-10988605D01*
X19518900Y-15186983D01*
X19252865Y-15120977D01*
X18977983Y-15108090D01*
X18705867Y-15149078D01*
X18446977Y-15242364D01*
X18331020Y-15304344D01*
X18264040Y-15544435D01*
X19050000Y-16330395D01*
X19064143Y-16316253D01*
X19243748Y-16495858D01*
X19229605Y-16510000D01*
X20015565Y-17295960D01*
X20163001Y-17254829D01*
X20163000Y-25329912D01*
X20156097Y-25400000D01*
X20163000Y-25470088D01*
X20163000Y-25470097D01*
X20183648Y-25679740D01*
X20265245Y-25948730D01*
X20397752Y-26196633D01*
X20397753Y-26196634D01*
X20531392Y-26359474D01*
X20531393Y-26359475D01*
X20576077Y-26413922D01*
X20630523Y-26458605D01*
X21801390Y-27629472D01*
X21846077Y-27683923D01*
X22063366Y-27862248D01*
X22311269Y-27994755D01*
X22580259Y-28076352D01*
X22789902Y-28097000D01*
X22789911Y-28097000D01*
X22859999Y-28103903D01*
X22930087Y-28097000D01*
X25394393Y-28097000D01*
X25358068Y-28133325D01*
X25173228Y-28409959D01*
X25045908Y-28717337D01*
X24981000Y-29043648D01*
X24981000Y-29376352D01*
X25045908Y-29702663D01*
X25173228Y-30010041D01*
X25358068Y-30286675D01*
X25551393Y-30480000D01*
X25358068Y-30673325D01*
X25173228Y-30949959D01*
X25045908Y-31257337D01*
X24981000Y-31583648D01*
X24981000Y-31916352D01*
X25045908Y-32242663D01*
X25173228Y-32550041D01*
X25358068Y-32826675D01*
X25551393Y-33020000D01*
X25358068Y-33213325D01*
X25173228Y-33489959D01*
X25045908Y-33797337D01*
X24981000Y-34123648D01*
X24981000Y-34456352D01*
X25045908Y-34782663D01*
X25173228Y-35090041D01*
X25358068Y-35366675D01*
X25593325Y-35601932D01*
X25869959Y-35786772D01*
X25902003Y-35800045D01*
X25884040Y-35864435D01*
X26670000Y-36650395D01*
X27455960Y-35864435D01*
X27437997Y-35800045D01*
X27470041Y-35786772D01*
X27574463Y-35717000D01*
X30409912Y-35717000D01*
X30480000Y-35723903D01*
X30550088Y-35717000D01*
X30550098Y-35717000D01*
X30759741Y-35696352D01*
X31028731Y-35614755D01*
X31276634Y-35482248D01*
X31493923Y-35303923D01*
X31538609Y-35249473D01*
X37440001Y-29348082D01*
X37440001Y-39850393D01*
X27887394Y-49403000D01*
X10212606Y-49403000D01*
X8765171Y-47955565D01*
X11914040Y-47955565D01*
X11981020Y-48195656D01*
X12230048Y-48312756D01*
X12497135Y-48379023D01*
X12772017Y-48391910D01*
X13044133Y-48350922D01*
X13303023Y-48257636D01*
X13418980Y-48195656D01*
X13485960Y-47955565D01*
X14454040Y-47955565D01*
X14521020Y-48195656D01*
X14770048Y-48312756D01*
X15037135Y-48379023D01*
X15312017Y-48391910D01*
X15584133Y-48350922D01*
X15843023Y-48257636D01*
X15958980Y-48195656D01*
X16025960Y-47955565D01*
X15240000Y-47169605D01*
X14454040Y-47955565D01*
X13485960Y-47955565D01*
X12700000Y-47169605D01*
X11914040Y-47955565D01*
X8765171Y-47955565D01*
X5093254Y-44283648D01*
X9741000Y-44283648D01*
X9741000Y-44616352D01*
X9805908Y-44942663D01*
X9933228Y-45250041D01*
X10118068Y-45526675D01*
X10353325Y-45761932D01*
X10629959Y-45946772D01*
X10937337Y-46074092D01*
X11263648Y-46139000D01*
X11596352Y-46139000D01*
X11657274Y-46126882D01*
X11734433Y-46204041D01*
X11494344Y-46271020D01*
X11377244Y-46520048D01*
X11310977Y-46787135D01*
X11298090Y-47062017D01*
X11339078Y-47334133D01*
X11432364Y-47593023D01*
X11494344Y-47708980D01*
X11734435Y-47775960D01*
X12520395Y-46990000D01*
X12879605Y-46990000D01*
X13665565Y-47775960D01*
X13905656Y-47708980D01*
X13967079Y-47578356D01*
X13972364Y-47593023D01*
X14034344Y-47708980D01*
X14274435Y-47775960D01*
X15060395Y-46990000D01*
X15419605Y-46990000D01*
X16205565Y-47775960D01*
X16269955Y-47757997D01*
X16283228Y-47790041D01*
X16468068Y-48066675D01*
X16703325Y-48301932D01*
X16979959Y-48486772D01*
X17287337Y-48614092D01*
X17613648Y-48679000D01*
X17946352Y-48679000D01*
X18272663Y-48614092D01*
X18580041Y-48486772D01*
X18856675Y-48301932D01*
X19050000Y-48108607D01*
X19243325Y-48301932D01*
X19519959Y-48486772D01*
X19827337Y-48614092D01*
X20153648Y-48679000D01*
X20486352Y-48679000D01*
X20812663Y-48614092D01*
X21120041Y-48486772D01*
X21396675Y-48301932D01*
X21590000Y-48108607D01*
X21783325Y-48301932D01*
X22059959Y-48486772D01*
X22367337Y-48614092D01*
X22693648Y-48679000D01*
X23026352Y-48679000D01*
X23352663Y-48614092D01*
X23660041Y-48486772D01*
X23936675Y-48301932D01*
X24130000Y-48108607D01*
X24323325Y-48301932D01*
X24599959Y-48486772D01*
X24907337Y-48614092D01*
X25233648Y-48679000D01*
X25566352Y-48679000D01*
X25892663Y-48614092D01*
X26200041Y-48486772D01*
X26476675Y-48301932D01*
X26711932Y-48066675D01*
X26896772Y-47790041D01*
X27024092Y-47482663D01*
X27089000Y-47156352D01*
X27089000Y-46823648D01*
X27024092Y-46497337D01*
X26896772Y-46189959D01*
X26859629Y-46134370D01*
X27162663Y-46074092D01*
X27470041Y-45946772D01*
X27746675Y-45761932D01*
X27981932Y-45526675D01*
X28166772Y-45250041D01*
X28294092Y-44942663D01*
X28359000Y-44616352D01*
X28359000Y-44283648D01*
X28294092Y-43957337D01*
X28166772Y-43649959D01*
X27981932Y-43373325D01*
X27788607Y-43180000D01*
X27981932Y-42986675D01*
X28166772Y-42710041D01*
X28294092Y-42402663D01*
X28359000Y-42076352D01*
X28359000Y-41743648D01*
X28294092Y-41417337D01*
X28166772Y-41109959D01*
X27981932Y-40833325D01*
X27788607Y-40640000D01*
X27981932Y-40446675D01*
X28166772Y-40170041D01*
X28294092Y-39862663D01*
X28359000Y-39536352D01*
X28359000Y-39203648D01*
X28294092Y-38877337D01*
X28166772Y-38569959D01*
X27981932Y-38293325D01*
X27746675Y-38058068D01*
X27470041Y-37873228D01*
X27437997Y-37859955D01*
X27455960Y-37795565D01*
X26670000Y-37009605D01*
X25884040Y-37795565D01*
X25902003Y-37859955D01*
X25869959Y-37873228D01*
X25593325Y-38058068D01*
X25358068Y-38293325D01*
X25173228Y-38569959D01*
X25045908Y-38877337D01*
X24981000Y-39203648D01*
X24981000Y-39536352D01*
X25045908Y-39862663D01*
X25173228Y-40170041D01*
X25358068Y-40446675D01*
X25551393Y-40640000D01*
X25358068Y-40833325D01*
X25173228Y-41109959D01*
X25045908Y-41417337D01*
X24981000Y-41743648D01*
X24981000Y-42076352D01*
X25045908Y-42402663D01*
X25173228Y-42710041D01*
X25358068Y-42986675D01*
X25551393Y-43180000D01*
X25358068Y-43373325D01*
X25173228Y-43649959D01*
X25045908Y-43957337D01*
X24981000Y-44283648D01*
X24981000Y-44616352D01*
X25045908Y-44942663D01*
X25173228Y-45250041D01*
X25210371Y-45305630D01*
X24907337Y-45365908D01*
X24599959Y-45493228D01*
X24323325Y-45678068D01*
X24130000Y-45871393D01*
X23936675Y-45678068D01*
X23660041Y-45493228D01*
X23352663Y-45365908D01*
X23026352Y-45301000D01*
X22693648Y-45301000D01*
X22367337Y-45365908D01*
X22059959Y-45493228D01*
X21783325Y-45678068D01*
X21590000Y-45871393D01*
X21396675Y-45678068D01*
X21120041Y-45493228D01*
X20812663Y-45365908D01*
X20486352Y-45301000D01*
X20153648Y-45301000D01*
X19827337Y-45365908D01*
X19519959Y-45493228D01*
X19243325Y-45678068D01*
X19050000Y-45871393D01*
X18856675Y-45678068D01*
X18580041Y-45493228D01*
X18272663Y-45365908D01*
X17946352Y-45301000D01*
X17613648Y-45301000D01*
X17287337Y-45365908D01*
X16979959Y-45493228D01*
X16703325Y-45678068D01*
X16468068Y-45913325D01*
X16283228Y-46189959D01*
X16269955Y-46222003D01*
X16205565Y-46204040D01*
X15419605Y-46990000D01*
X15060395Y-46990000D01*
X14274435Y-46204040D01*
X14034344Y-46271020D01*
X13972921Y-46401644D01*
X13967636Y-46386977D01*
X13905656Y-46271020D01*
X13665565Y-46204040D01*
X12879605Y-46990000D01*
X12520395Y-46990000D01*
X12506253Y-46975858D01*
X12685858Y-46796253D01*
X12700000Y-46810395D01*
X13485960Y-46024435D01*
X14454040Y-46024435D01*
X15240000Y-46810395D01*
X16025960Y-46024435D01*
X15958980Y-45784344D01*
X15709952Y-45667244D01*
X15442865Y-45600977D01*
X15167983Y-45588090D01*
X14895867Y-45629078D01*
X14636977Y-45722364D01*
X14521020Y-45784344D01*
X14454040Y-46024435D01*
X13485960Y-46024435D01*
X13418980Y-45784344D01*
X13169952Y-45667244D01*
X12902865Y-45600977D01*
X12678164Y-45590443D01*
X12741932Y-45526675D01*
X12926772Y-45250041D01*
X13054092Y-44942663D01*
X13119000Y-44616352D01*
X13119000Y-44283648D01*
X13054092Y-43957337D01*
X12926772Y-43649959D01*
X12741932Y-43373325D01*
X12506675Y-43138068D01*
X12230041Y-42953228D01*
X12197997Y-42939955D01*
X12215960Y-42875565D01*
X11430000Y-42089605D01*
X10644040Y-42875565D01*
X10662003Y-42939955D01*
X10629959Y-42953228D01*
X10353325Y-43138068D01*
X10118068Y-43373325D01*
X9933228Y-43649959D01*
X9805908Y-43957337D01*
X9741000Y-44283648D01*
X5093254Y-44283648D01*
X2791623Y-41982017D01*
X10028090Y-41982017D01*
X10069078Y-42254133D01*
X10162364Y-42513023D01*
X10224344Y-42628980D01*
X10464435Y-42695960D01*
X11250395Y-41910000D01*
X11609605Y-41910000D01*
X12395565Y-42695960D01*
X12635656Y-42628980D01*
X12752756Y-42379952D01*
X12819023Y-42112865D01*
X12831910Y-41837983D01*
X12790922Y-41565867D01*
X12697636Y-41306977D01*
X12635656Y-41191020D01*
X12395565Y-41124040D01*
X11609605Y-41910000D01*
X11250395Y-41910000D01*
X10464435Y-41124040D01*
X10224344Y-41191020D01*
X10107244Y-41440048D01*
X10040977Y-41707135D01*
X10028090Y-41982017D01*
X2791623Y-41982017D01*
X660000Y-39850394D01*
X660000Y-32600000D01*
X1051928Y-32600000D01*
X1064188Y-32724482D01*
X1100498Y-32844180D01*
X1159463Y-32954494D01*
X1238815Y-33051185D01*
X1335506Y-33130537D01*
X1445820Y-33189502D01*
X1565518Y-33225812D01*
X1690000Y-33238072D01*
X2254250Y-33235000D01*
X2413000Y-33076250D01*
X2413000Y-31877000D01*
X1213750Y-31877000D01*
X1055000Y-32035750D01*
X1051928Y-32600000D01*
X660000Y-32600000D01*
X660000Y-30900000D01*
X1051928Y-30900000D01*
X1055000Y-31464250D01*
X1213750Y-31623000D01*
X2413000Y-31623000D01*
X2413000Y-29337000D01*
X1219845Y-29337000D01*
X1098524Y-29566890D01*
X1143175Y-29714099D01*
X1268359Y-29976920D01*
X1442412Y-30210269D01*
X1526466Y-30286034D01*
X1445820Y-30310498D01*
X1335506Y-30369463D01*
X1238815Y-30448815D01*
X1159463Y-30545506D01*
X1100498Y-30655820D01*
X1064188Y-30775518D01*
X1051928Y-30900000D01*
X660000Y-30900000D01*
X660000Y-27026890D01*
X1098524Y-27026890D01*
X1143175Y-27174099D01*
X1268359Y-27436920D01*
X1442412Y-27670269D01*
X1658645Y-27865178D01*
X1784255Y-27940000D01*
X1658645Y-28014822D01*
X1442412Y-28209731D01*
X1268359Y-28443080D01*
X1143175Y-28705901D01*
X1098524Y-28853110D01*
X1219845Y-29083000D01*
X2413000Y-29083000D01*
X2413000Y-26797000D01*
X1219845Y-26797000D01*
X1098524Y-27026890D01*
X660000Y-27026890D01*
X660000Y-26313110D01*
X1098524Y-26313110D01*
X1219845Y-26543000D01*
X2413000Y-26543000D01*
X2413000Y-25349186D01*
X2183109Y-25228519D01*
X1908748Y-25325843D01*
X1658645Y-25474822D01*
X1442412Y-25669731D01*
X1268359Y-25903080D01*
X1143175Y-26165901D01*
X1098524Y-26313110D01*
X660000Y-26313110D01*
X660000Y-22440000D01*
X1051928Y-22440000D01*
X1064188Y-22564482D01*
X1100498Y-22684180D01*
X1159463Y-22794494D01*
X1238815Y-22891185D01*
X1335506Y-22970537D01*
X1445820Y-23029502D01*
X1565518Y-23065812D01*
X1690000Y-23078072D01*
X2254250Y-23075000D01*
X2413000Y-22916250D01*
X2413000Y-21717000D01*
X1213750Y-21717000D01*
X1055000Y-21875750D01*
X1051928Y-22440000D01*
X660000Y-22440000D01*
X660000Y-20740000D01*
X1051928Y-20740000D01*
X1055000Y-21304250D01*
X1213750Y-21463000D01*
X2413000Y-21463000D01*
X2413000Y-20263750D01*
X2667000Y-20263750D01*
X2667000Y-21463000D01*
X2687000Y-21463000D01*
X2687000Y-21717000D01*
X2667000Y-21717000D01*
X2667000Y-22916250D01*
X2825750Y-23075000D01*
X3390000Y-23078072D01*
X3514482Y-23065812D01*
X3634180Y-23029502D01*
X3744494Y-22970537D01*
X3841185Y-22891185D01*
X3853330Y-22876387D01*
X3947229Y-22970286D01*
X4238275Y-23164757D01*
X4561668Y-23298711D01*
X4904981Y-23367000D01*
X5255019Y-23367000D01*
X5598332Y-23298711D01*
X5921725Y-23164757D01*
X6212771Y-22970286D01*
X6460286Y-22722771D01*
X6654757Y-22431725D01*
X6788711Y-22108332D01*
X6857000Y-21765019D01*
X6857000Y-21414981D01*
X6788711Y-21071668D01*
X6654757Y-20748275D01*
X6460286Y-20457229D01*
X6212771Y-20209714D01*
X5921725Y-20015243D01*
X5598332Y-19881289D01*
X5255019Y-19813000D01*
X4904981Y-19813000D01*
X4561668Y-19881289D01*
X4238275Y-20015243D01*
X3947229Y-20209714D01*
X3853330Y-20303613D01*
X3841185Y-20288815D01*
X3744494Y-20209463D01*
X3634180Y-20150498D01*
X3514482Y-20114188D01*
X3390000Y-20101928D01*
X2825750Y-20105000D01*
X2667000Y-20263750D01*
X2413000Y-20263750D01*
X2254250Y-20105000D01*
X1690000Y-20101928D01*
X1565518Y-20114188D01*
X1445820Y-20150498D01*
X1335506Y-20209463D01*
X1238815Y-20288815D01*
X1159463Y-20385506D01*
X1100498Y-20495820D01*
X1064188Y-20615518D01*
X1051928Y-20740000D01*
X660000Y-20740000D01*
X660000Y-4662493D01*
X732166Y-4797505D01*
M02*
