M48
; DRILL file {KiCad 5.1.5+dfsg1-2build2} date Вс 14 мар 2021 02:46:26
; FORMAT={-:-/ absolute / metric / decimal}
; #@! TF.CreationDate,2021-03-14T02:46:26+03:00
; #@! TF.GenerationSoftware,Kicad,Pcbnew,5.1.5+dfsg1-2build2
FMAT,2
METRIC
T1C0.400
T2C0.762
T3C1.000
%
G90
G05
T1
X11.43Y-8.89
X36.83Y-7.62
T2
X11.43Y-16.51
X11.43Y-19.05
X11.43Y-21.59
X11.43Y-24.13
X11.43Y-26.67
X11.43Y-29.21
X11.43Y-31.75
X11.43Y-34.29
X11.43Y-36.83
X11.43Y-39.37
X11.43Y-41.91
X11.43Y-44.45
X12.7Y-46.99
X13.97Y-16.51
X13.97Y-33.02
X13.97Y-35.56
X15.24Y-46.99
X16.51Y-16.51
X17.78Y-46.99
X19.05Y-16.51
X20.32Y-46.99
X22.86Y-46.99
X25.4Y-46.99
X26.67Y-16.51
X26.67Y-19.05
X26.67Y-21.59
X26.67Y-24.13
X26.67Y-26.67
X26.67Y-29.21
X26.67Y-31.75
X26.67Y-34.29
X26.67Y-36.83
X26.67Y-39.37
X26.67Y-41.91
X26.67Y-44.45
T3
X2.54Y-26.67
X2.54Y-29.21
X2.54Y-31.75
X5.08Y-26.67
X5.08Y-29.21
X5.08Y-31.75
X2.54Y-21.59
X5.08Y-21.59
T0
M30
